<svg width="107" height="35" viewBox="0 0 107 35" fill="none" xmlns="http://www.w3.org/2000/svg">
<path d="M17.5 0C15.2019 0 12.9262 0.4527 10.803 1.3321C8.6798 2.2116 6.7507 3.5006 5.1256 5.1256C3.5006 6.7507 2.2116 8.6798 1.3321 10.803C0.4527 12.9262 0 15.2019 0 17.5C0 19.7981 0.4527 22.0738 1.3321 24.197C2.2116 26.3202 3.5006 28.2493 5.1256 29.8744C6.7507 31.4994 8.6798 32.7884 10.803 33.6679C12.9262 34.5473 15.2019 35 17.5 35V26.25C16.3509 26.25 15.2131 26.0237 14.1515 25.5839C13.0899 25.1442 12.1253 24.4997 11.3128 23.6872C10.5003 22.8747 9.8558 21.9101 9.4161 20.8485C8.9763 19.7869 8.75 18.6491 8.75 17.5C8.75 16.3509 8.9763 15.2131 9.4161 14.1515C9.8558 13.0899 10.5003 12.1253 11.3128 11.3128C12.1253 10.5003 13.0899 9.8558 14.1515 9.4161C15.2131 8.9763 16.3509 8.75 17.5 8.75V0Z" fill="#0F52FF"/>
<path d="M17.5001 23.3333C20.7218 23.3333 23.3334 20.7217 23.3334 17.5C23.3334 14.2783 20.7218 11.6667 17.5001 11.6667C14.2784 11.6667 11.6668 14.2783 11.6668 17.5C11.6668 20.7217 14.2784 23.3333 17.5001 23.3333Z" fill="#0F52FF"/>
<path d="M0 17.5C0 19.7981 0.4527 22.0738 1.3321 24.197C2.2116 26.3202 3.5006 28.2493 5.1256 29.8744C6.7507 31.4994 8.6798 32.7884 10.803 33.6679C12.9262 34.5473 15.2019 35 17.5 35C19.7981 35 22.0738 34.5473 24.197 33.6679C26.3202 32.7884 28.2493 31.4994 29.8744 29.8744C31.4994 28.2493 32.7884 26.3202 33.6679 24.197C34.5473 22.0738 35 19.7981 35 17.5H26.25C26.25 18.6491 26.0237 19.7869 25.5839 20.8485C25.1442 21.9101 24.4997 22.8747 23.6872 23.6872C22.8747 24.4997 21.9101 25.1442 20.8485 25.5839C19.7869 26.0237 18.6491 26.25 17.5 26.25C16.3509 26.25 15.2131 26.0237 14.1515 25.5839C13.0899 25.1442 12.1253 24.4997 11.3128 23.6872C10.5003 22.8747 9.8558 21.9101 9.4161 20.8485C8.9763 19.7869 8.75 18.6491 8.75 17.5H0Z" fill="#5BD0F4"/>
<path d="M23.3334 17.5C23.3334 15.9529 22.7188 14.4692 21.6249 13.3752C20.5309 12.2812 19.0472 11.6666 17.5001 11.6666C15.953 11.6666 14.4693 12.2812 13.3753 13.3752C12.2813 14.4692 11.6667 15.9529 11.6667 17.5H17.5001H23.3334Z" fill="#5BD0F4"/>
<path d="M47.916 20.012H43.842L43.142 22H41.476L44.962 12.256H46.81L50.296 22H48.616L47.916 20.012ZM47.468 18.71L45.886 14.188L44.29 18.71H47.468ZM51.2797 18.108C51.2797 17.3333 51.4384 16.6473 51.7557 16.05C52.0824 15.4527 52.5211 14.9907 53.0717 14.664C53.6317 14.328 54.2524 14.16 54.9337 14.16C55.4377 14.16 55.9324 14.272 56.4177 14.496C56.9124 14.7107 57.3044 15 57.5937 15.364V11.64H59.2037V22H57.5937V20.838C57.3324 21.2113 56.9684 21.5193 56.5017 21.762C56.0444 22.0047 55.5171 22.126 54.9197 22.126C54.2477 22.126 53.6317 21.958 53.0717 21.622C52.5211 21.2767 52.0824 20.8007 51.7557 20.194C51.4384 19.578 51.2797 18.8827 51.2797 18.108ZM57.5937 18.136C57.5937 17.604 57.4817 17.142 57.2577 16.75C57.0431 16.358 56.7584 16.0593 56.4037 15.854C56.0491 15.6487 55.6664 15.546 55.2557 15.546C54.8451 15.546 54.4624 15.6487 54.1077 15.854C53.7531 16.05 53.4637 16.344 53.2397 16.736C53.0251 17.1187 52.9177 17.576 52.9177 18.108C52.9177 18.64 53.0251 19.1067 53.2397 19.508C53.4637 19.9093 53.7531 20.2173 54.1077 20.432C54.4717 20.6373 54.8544 20.74 55.2557 20.74C55.6664 20.74 56.0491 20.6373 56.4037 20.432C56.7584 20.2267 57.0431 19.928 57.2577 19.536C57.4817 19.1347 57.5937 18.668 57.5937 18.136ZM60.768 18.108C60.768 17.3333 60.9267 16.6473 61.244 16.05C61.5707 15.4527 62.0093 14.9907 62.56 14.664C63.12 14.328 63.736 14.16 64.408 14.16C65.0147 14.16 65.542 14.2813 65.99 14.524C66.4473 14.7573 66.8113 15.0513 67.082 15.406V14.286H68.692V22H67.082V20.852C66.8113 21.216 66.4427 21.5193 65.976 21.762C65.5093 22.0047 64.9773 22.126 64.38 22.126C63.7173 22.126 63.1107 21.958 62.56 21.622C62.0093 21.2767 61.5707 20.8007 61.244 20.194C60.9267 19.578 60.768 18.8827 60.768 18.108ZM67.082 18.136C67.082 17.604 66.97 17.142 66.746 16.75C66.5313 16.358 66.2467 16.0593 65.892 15.854C65.5373 15.6487 65.1547 15.546 64.744 15.546C64.3333 15.546 63.9507 15.6487 63.596 15.854C63.2413 16.05 62.952 16.344 62.728 16.736C62.5133 17.1187 62.406 17.576 62.406 18.108C62.406 18.64 62.5133 19.1067 62.728 19.508C62.952 19.9093 63.2413 20.2173 63.596 20.432C63.96 20.6373 64.3427 20.74 64.744 20.74C65.1547 20.74 65.5373 20.6373 65.892 20.432C66.2467 20.2267 66.5313 19.928 66.746 19.536C66.97 19.1347 67.082 18.668 67.082 18.136Z" fill="#0F52FF"/>
<path d="M76.6543 20.012H72.5803L71.8803 22H70.2143L73.7003 12.256H75.5483L79.0343 22H77.3543L76.6543 20.012ZM76.2063 18.71L74.6243 14.188L73.0283 18.71H76.2063ZM82.146 15.42C82.4167 15.0653 82.7853 14.7667 83.252 14.524C83.7187 14.2813 84.246 14.16 84.834 14.16C85.506 14.16 86.1173 14.328 86.668 14.664C87.228 14.9907 87.6667 15.4527 87.984 16.05C88.3013 16.6473 88.46 17.3333 88.46 18.108C88.46 18.8827 88.3013 19.578 87.984 20.194C87.6667 20.8007 87.228 21.2767 86.668 21.622C86.1173 21.958 85.506 22.126 84.834 22.126C84.246 22.126 83.7233 22.0093 83.266 21.776C82.8087 21.5333 82.4353 21.2347 82.146 20.88V25.668H80.55V14.286H82.146V15.42ZM86.836 18.108C86.836 17.576 86.724 17.1187 86.5 16.736C86.2853 16.344 85.996 16.05 85.632 15.854C85.2773 15.6487 84.8947 15.546 84.484 15.546C84.0827 15.546 83.7 15.6487 83.336 15.854C82.9813 16.0593 82.692 16.358 82.468 16.75C82.2533 17.142 82.146 17.604 82.146 18.136C82.146 18.668 82.2533 19.1347 82.468 19.536C82.692 19.928 82.9813 20.2267 83.336 20.432C83.7 20.6373 84.0827 20.74 84.484 20.74C84.8947 20.74 85.2773 20.6373 85.632 20.432C85.996 20.2173 86.2853 19.9093 86.5 19.508C86.724 19.1067 86.836 18.64 86.836 18.108ZM89.5063 18.108C89.5063 17.3333 89.6649 16.6473 89.9823 16.05C90.3089 15.4527 90.7476 14.9907 91.2983 14.664C91.8583 14.328 92.4743 14.16 93.1463 14.16C93.7529 14.16 94.2803 14.2813 94.7283 14.524C95.1856 14.7573 95.5496 15.0513 95.8203 15.406V14.286H97.4303V22H95.8203V20.852C95.5496 21.216 95.1809 21.5193 94.7143 21.762C94.2476 22.0047 93.7156 22.126 93.1183 22.126C92.4556 22.126 91.8489 21.958 91.2983 21.622C90.7476 21.2767 90.3089 20.8007 89.9823 20.194C89.6649 19.578 89.5063 18.8827 89.5063 18.108ZM95.8203 18.136C95.8203 17.604 95.7083 17.142 95.4843 16.75C95.2696 16.358 94.9849 16.0593 94.6303 15.854C94.2756 15.6487 93.8929 15.546 93.4823 15.546C93.0716 15.546 92.6889 15.6487 92.3343 15.854C91.9796 16.05 91.6903 16.344 91.4663 16.736C91.2516 17.1187 91.1443 17.576 91.1443 18.108C91.1443 18.64 91.2516 19.1067 91.4663 19.508C91.6903 19.9093 91.9796 20.2173 92.3343 20.432C92.6983 20.6373 93.0809 20.74 93.4823 20.74C93.8929 20.74 94.2756 20.6373 94.6303 20.432C94.9849 20.2267 95.2696 19.928 95.4843 19.536C95.7083 19.1347 95.8203 18.668 95.8203 18.136ZM102.145 12.13C103.097 12.13 103.857 12.3913 104.427 12.914C105.005 13.4367 105.295 14.1507 105.295 15.056C105.295 15.9987 104.996 16.708 104.399 17.184C103.801 17.66 103.008 17.898 102.019 17.898L101.963 19.004H100.577L100.507 16.806H100.969C101.874 16.806 102.565 16.6847 103.041 16.442C103.526 16.1993 103.769 15.7373 103.769 15.056C103.769 14.5613 103.624 14.174 103.335 13.894C103.055 13.614 102.663 13.474 102.159 13.474C101.655 13.474 101.258 13.6093 100.969 13.88C100.679 14.1507 100.535 14.5287 100.535 15.014H99.0366C99.0366 14.454 99.1626 13.9547 99.4146 13.516C99.6666 13.0773 100.026 12.7367 100.493 12.494C100.969 12.2513 101.519 12.13 102.145 12.13ZM101.249 22.098C100.959 22.098 100.717 22 100.521 21.804C100.325 21.608 100.227 21.3653 100.227 21.076C100.227 20.7867 100.325 20.544 100.521 20.348C100.717 20.152 100.959 20.054 101.249 20.054C101.529 20.054 101.767 20.152 101.963 20.348C102.159 20.544 102.257 20.7867 102.257 21.076C102.257 21.3653 102.159 21.608 101.963 21.804C101.767 22 101.529 22.098 101.249 22.098Z" fill="#5BD0F4"/>
</svg>
